<svg width="1356" height="133" viewBox="0 0 1356 133" fill="none" xmlns="http://www.w3.org/2000/svg">
<path fill-rule="evenodd" clip-rule="evenodd" d="M1356 0H-10V27.6503C69.0078 49.9323 162.154 69.6349 251.729 85.4662C362.219 104.994 471.981 108.913 582.365 112.854L582.365 112.854L582.366 112.854C625.236 114.385 668.2 115.919 711.337 118.372C739.93 119.998 769.133 122.067 798.302 124.134L798.302 124.134C886.408 130.376 974.192 136.596 1043.85 130.511C1109.23 124.8 1140.1 108.243 1171.04 91.6541C1181.39 86.1002 1191.76 80.5429 1203.42 75.3877C1220.71 67.7491 1231.26 58.8166 1241.75 49.9279C1255.59 38.2065 1269.34 26.5613 1298.34 18.0602C1314.57 13.3029 1334.23 9.33452 1356 5.86685V0Z" fill="#DDDBF2" fill-opacity="0.26"/>
</svg>
